<?xml version="1.0" encoding="utf-8"?>
<svg width="120px" height="120px" viewBox="0 0 24 24" xmlns="http://www.w3.org/2000/svg">
    <path d="M12 4C14.2091 4 16 5.79086 16 8H8C8 5.79086 9.79086 4 12 4ZM16.6177 9C16.8607 9.30365 17 9.67963 17 10.0909V15H7V10.0909C7 9.67963 7.13933 9.30365 7.38235 9H16.6177ZM6 10.0909C6 9.20297 6.3424 8.37198 6.92051 7.75H5C4.44772 7.75 4 8.19772 4 8.75V11.25C4 11.8023 4.44772 12.25 5 12.25H6V10.0909ZM18 10.0909V12.25H19C19.5523 12.25 20 11.8023 20 11.25V8.75C20 8.19772 19.5523 7.75 19 7.75H17.0795C17.6576 8.37198 18 9.20297 18 10.0909ZM5 16.75C4.44772 16.75 4 17.1977 4 17.75V18.25C4 18.8023 4.44772 19.25 5 19.25H19C19.5523 19.25 20 18.8023 20 18.25V17.75C20 17.1977 19.5523 16.75 19 16.75H5Z" style="fill:#9333ea"/>
</svg>