<?xml version="1.0" encoding="utf-8"?>
<svg width="120px" height="120px" viewBox="0 0 32 32" xmlns="http://www.w3.org/2000/svg">
  <path d="M16 4.32c-2.667-1.6-5.333-1.6-8-0.32-2.667 1.28-4 3.44-4 6.4v11.2c0 2.96 1.333 5.12 4 6.72 2.667 1.28 5.333 1.28 8 0 2.667-1.6 4-3.76 4-6.72v-11.2c0-2.96-1.333-5.12-4-6.08zM24 10.72c0 .96-.267 1.92-.8 2.88-.533.96-1.267 1.6-2.4 2.24v1.28c1.067.64 1.867 1.28 2.4 2 .533.72.8 1.76.8 2.88v4c0 .32-.267.48-.8.48s-.8-.16-.8-.48v-4c0-.64-.267-1.28-.8-1.92-.533-.64-1.333-1.28-2.4-1.92v-5.76c1.067-.64 1.867-1.28 2.4-2.24.533-.96.8-1.92.8-2.88v-2.88c0-.32.267-.48.8-.48s.8.16.8.48v2.88z" style="fill:#00599c"/>
</svg>