<?xml version="1.0" encoding="utf-8"?>
<svg width="120px" height="120px" viewBox="0 0 24 24" xmlns="http://www.w3.org/2000/svg">
    <path d="M12 2C13.1046 2 14 2.89543 14 4C14 4.73638 13.5978 5.37978 13 5.73264V7H14C16.7614 7 19 9.23858 19 12L18.9998 13H20C21.1046 13 22 13.8954 22 15C22 16.1046 21.1046 17 20 17C18.8954 17 18 16.1046 18 15L18.0002 12C18.0002 9.79086 16.2091 8 14 8H10C7.79086 8 6 9.79086 6 12L6.00024 15C6.00024 16.1046 5.10481 17 4.00024 17C2.89567 17 2.00024 16.1046 2.00024 15C2.00024 13.8954 2.89567 13 4.00024 13H5.00016L5 12C5 9.23858 7.23858 7 10 7H11V5.73264C10.4022 5.37978 10 4.73638 10 4C10 2.89543 10.8954 2 12 2ZM12 3C11.4477 3 11 3.44772 11 4C11 4.55228 11.4477 5 12 5C12.5523 5 13 4.55228 13 4C13 3.44772 12.5523 3 12 3ZM4.00024 14C3.44796 14 3.00024 14.4477 3.00024 15C3.00024 15.5523 3.44796 16 4.00024 16C4.55253 16 5.00024 15.5523 5.00024 15C5.00024 14.4477 4.55253 14 4.00024 14ZM20 14C19.4477 14 19 14.4477 19 15C19 15.5523 19.4477 16 20 16C20.5523 16 21 15.5523 21 15C21 14.4477 20.5523 14 20 14ZM12 17C13.1046 17 14 17.8954 14 19V20C14 21.1046 13.1046 22 12 22C10.8954 22 10 21.1046 10 20V19C10 17.8954 10.8954 17 12 17ZM12 18C11.4477 18 11 18.4477 11 19V20C11 20.5523 11.4477 21 12 21C12.5523 21 13 20.5523 13 20V19C13 18.4477 12.5523 18 12 18Z" style="fill:#0891b2"/>
</svg>